<mxfile host="app.diagrams.net" modified="2024-05-04T12:06:19.390Z" agent="Mozilla/5.0 (Windows NT 10.0; Win64; x64) AppleWebKit/537.36 (KHTML, like Gecko) Chrome/124.0.0.0 Safari/537.36" etag="HXf3ReDM5neClbos4lm3" version="24.3.1" type="github">
  <diagram name="페이지-1" id="Ti042iF7BFntDtKXmjCm">
    <mxGraphModel dx="935" dy="914" grid="1" gridSize="10" guides="1" tooltips="1" connect="1" arrows="1" fold="1" page="1" pageScale="1" pageWidth="827" pageHeight="1169" math="0" shadow="0">
      <root>
        <mxCell id="0" />
        <mxCell id="1" parent="0" />
        <mxCell id="mVGblYuvA7sIbJMndEKm-1" value="Button" style="rounded=0;whiteSpace=wrap;html=1;" vertex="1" parent="1">
          <mxGeometry x="40" y="40" width="80" height="40" as="geometry" />
        </mxCell>
        <mxCell id="mVGblYuvA7sIbJMndEKm-2" value="Listener" style="rounded=0;whiteSpace=wrap;html=1;" vertex="1" parent="1">
          <mxGeometry x="160" y="40" width="80" height="40" as="geometry" />
        </mxCell>
        <mxCell id="mVGblYuvA7sIbJMndEKm-3" value="ButtonState" style="rounded=0;whiteSpace=wrap;html=1;" vertex="1" parent="1">
          <mxGeometry x="280" y="40" width="80" height="40" as="geometry" />
        </mxCell>
        <mxCell id="mVGblYuvA7sIbJMndEKm-4" value="Controller" style="rounded=0;whiteSpace=wrap;html=1;" vertex="1" parent="1">
          <mxGeometry x="400" y="40" width="80" height="40" as="geometry" />
        </mxCell>
        <mxCell id="mVGblYuvA7sIbJMndEKm-5" value="MovingState&lt;br&gt;Que" style="rounded=0;whiteSpace=wrap;html=1;" vertex="1" parent="1">
          <mxGeometry x="520" y="40" width="80" height="40" as="geometry" />
        </mxCell>
        <mxCell id="mVGblYuvA7sIbJMndEKm-6" value="Presenter" style="rounded=0;whiteSpace=wrap;html=1;" vertex="1" parent="1">
          <mxGeometry x="640" y="40" width="80" height="40" as="geometry" />
        </mxCell>
        <mxCell id="mVGblYuvA7sIbJMndEKm-7" value="Motor" style="rounded=0;whiteSpace=wrap;html=1;" vertex="1" parent="1">
          <mxGeometry x="760" y="40" width="80" height="40" as="geometry" />
        </mxCell>
        <mxCell id="mVGblYuvA7sIbJMndEKm-8" value="" style="endArrow=none;html=1;rounded=0;entryX=0.5;entryY=1;entryDx=0;entryDy=0;" edge="1" parent="1" target="mVGblYuvA7sIbJMndEKm-1">
          <mxGeometry width="50" height="50" relative="1" as="geometry">
            <mxPoint x="80" y="480" as="sourcePoint" />
            <mxPoint x="100" y="100" as="targetPoint" />
          </mxGeometry>
        </mxCell>
        <mxCell id="mVGblYuvA7sIbJMndEKm-9" value="" style="endArrow=none;html=1;rounded=0;entryX=0.5;entryY=1;entryDx=0;entryDy=0;" edge="1" parent="1">
          <mxGeometry width="50" height="50" relative="1" as="geometry">
            <mxPoint x="315" y="480" as="sourcePoint" />
            <mxPoint x="315" y="80" as="targetPoint" />
          </mxGeometry>
        </mxCell>
        <mxCell id="mVGblYuvA7sIbJMndEKm-10" value="" style="endArrow=none;html=1;rounded=0;entryX=0.5;entryY=1;entryDx=0;entryDy=0;" edge="1" parent="1">
          <mxGeometry width="50" height="50" relative="1" as="geometry">
            <mxPoint x="200" y="480" as="sourcePoint" />
            <mxPoint x="199.66" y="80" as="targetPoint" />
          </mxGeometry>
        </mxCell>
        <mxCell id="mVGblYuvA7sIbJMndEKm-11" value="" style="endArrow=none;html=1;rounded=0;entryX=0.5;entryY=1;entryDx=0;entryDy=0;" edge="1" parent="1">
          <mxGeometry width="50" height="50" relative="1" as="geometry">
            <mxPoint x="325" y="480" as="sourcePoint" />
            <mxPoint x="325" y="80" as="targetPoint" />
          </mxGeometry>
        </mxCell>
        <mxCell id="mVGblYuvA7sIbJMndEKm-12" value="" style="endArrow=none;html=1;rounded=0;entryX=0.5;entryY=1;entryDx=0;entryDy=0;" edge="1" parent="1">
          <mxGeometry width="50" height="50" relative="1" as="geometry">
            <mxPoint x="440" y="480" as="sourcePoint" />
            <mxPoint x="439.76" y="80" as="targetPoint" />
          </mxGeometry>
        </mxCell>
        <mxCell id="mVGblYuvA7sIbJMndEKm-13" value="" style="endArrow=none;html=1;rounded=0;entryX=0.5;entryY=1;entryDx=0;entryDy=0;" edge="1" parent="1">
          <mxGeometry width="50" height="50" relative="1" as="geometry">
            <mxPoint x="565" y="480" as="sourcePoint" />
            <mxPoint x="564.76" y="80" as="targetPoint" />
          </mxGeometry>
        </mxCell>
        <mxCell id="mVGblYuvA7sIbJMndEKm-14" value="" style="endArrow=none;html=1;rounded=0;entryX=0.5;entryY=1;entryDx=0;entryDy=0;" edge="1" parent="1">
          <mxGeometry width="50" height="50" relative="1" as="geometry">
            <mxPoint x="555" y="480" as="sourcePoint" />
            <mxPoint x="554.76" y="80" as="targetPoint" />
          </mxGeometry>
        </mxCell>
        <mxCell id="mVGblYuvA7sIbJMndEKm-15" value="" style="endArrow=none;html=1;rounded=0;entryX=0.5;entryY=1;entryDx=0;entryDy=0;" edge="1" parent="1">
          <mxGeometry width="50" height="50" relative="1" as="geometry">
            <mxPoint x="680" y="480" as="sourcePoint" />
            <mxPoint x="679.76" y="80" as="targetPoint" />
          </mxGeometry>
        </mxCell>
        <mxCell id="mVGblYuvA7sIbJMndEKm-16" value="" style="endArrow=none;html=1;rounded=0;entryX=0.5;entryY=1;entryDx=0;entryDy=0;" edge="1" parent="1">
          <mxGeometry width="50" height="50" relative="1" as="geometry">
            <mxPoint x="800" y="480" as="sourcePoint" />
            <mxPoint x="799.76" y="80" as="targetPoint" />
          </mxGeometry>
        </mxCell>
        <mxCell id="mVGblYuvA7sIbJMndEKm-17" value="" style="endArrow=classic;html=1;rounded=0;" edge="1" parent="1">
          <mxGeometry width="50" height="50" relative="1" as="geometry">
            <mxPoint x="80" y="120" as="sourcePoint" />
            <mxPoint x="200" y="120" as="targetPoint" />
          </mxGeometry>
        </mxCell>
        <mxCell id="mVGblYuvA7sIbJMndEKm-18" value="rxData&lt;div&gt;== &#39; ; &#39;&lt;/div&gt;" style="rhombus;whiteSpace=wrap;html=1;" vertex="1" parent="1">
          <mxGeometry x="160" y="150" width="80" height="60" as="geometry" />
        </mxCell>
        <mxCell id="mVGblYuvA7sIbJMndEKm-19" value="rxData" style="rounded=0;whiteSpace=wrap;html=1;" vertex="1" parent="1">
          <mxGeometry x="160" y="240" width="80" height="40" as="geometry" />
        </mxCell>
        <mxCell id="mVGblYuvA7sIbJMndEKm-20" value="null" style="rounded=0;whiteSpace=wrap;html=1;" vertex="1" parent="1">
          <mxGeometry x="160" y="320" width="80" height="40" as="geometry" />
        </mxCell>
        <mxCell id="mVGblYuvA7sIbJMndEKm-21" value="flag =1" style="rounded=0;whiteSpace=wrap;html=1;" vertex="1" parent="1">
          <mxGeometry x="160" y="400" width="80" height="40" as="geometry" />
        </mxCell>
        <mxCell id="mVGblYuvA7sIbJMndEKm-22" value="" style="endArrow=classic;html=1;rounded=0;" edge="1" parent="1">
          <mxGeometry width="50" height="50" relative="1" as="geometry">
            <mxPoint x="130" y="340" as="sourcePoint" />
            <mxPoint x="160" y="340" as="targetPoint" />
          </mxGeometry>
        </mxCell>
        <mxCell id="mVGblYuvA7sIbJMndEKm-23" value="" style="endArrow=none;html=1;rounded=0;" edge="1" parent="1">
          <mxGeometry width="50" height="50" relative="1" as="geometry">
            <mxPoint x="130" y="340" as="sourcePoint" />
            <mxPoint x="130" y="180" as="targetPoint" />
          </mxGeometry>
        </mxCell>
        <mxCell id="mVGblYuvA7sIbJMndEKm-24" value="" style="endArrow=none;html=1;rounded=0;entryX=0;entryY=0.5;entryDx=0;entryDy=0;" edge="1" parent="1" target="mVGblYuvA7sIbJMndEKm-18">
          <mxGeometry width="50" height="50" relative="1" as="geometry">
            <mxPoint x="130" y="180" as="sourcePoint" />
            <mxPoint x="210" y="210" as="targetPoint" />
          </mxGeometry>
        </mxCell>
        <mxCell id="mVGblYuvA7sIbJMndEKm-25" value="" style="endArrow=classic;html=1;rounded=0;exitX=1.004;exitY=0.491;exitDx=0;exitDy=0;exitPerimeter=0;" edge="1" parent="1" source="mVGblYuvA7sIbJMndEKm-19">
          <mxGeometry width="50" height="50" relative="1" as="geometry">
            <mxPoint x="245" y="259.94" as="sourcePoint" />
            <mxPoint x="315" y="259.94" as="targetPoint" />
          </mxGeometry>
        </mxCell>
        <mxCell id="mVGblYuvA7sIbJMndEKm-26" value="" style="endArrow=classic;html=1;rounded=0;exitX=1.004;exitY=0.491;exitDx=0;exitDy=0;exitPerimeter=0;" edge="1" parent="1">
          <mxGeometry width="50" height="50" relative="1" as="geometry">
            <mxPoint x="239.68" y="340.21" as="sourcePoint" />
            <mxPoint x="314.68" y="340.15" as="targetPoint" />
          </mxGeometry>
        </mxCell>
        <mxCell id="mVGblYuvA7sIbJMndEKm-27" value="" style="endArrow=classic;html=1;rounded=0;exitX=1.004;exitY=0.491;exitDx=0;exitDy=0;exitPerimeter=0;" edge="1" parent="1">
          <mxGeometry width="50" height="50" relative="1" as="geometry">
            <mxPoint x="240" y="419.97999999999996" as="sourcePoint" />
            <mxPoint x="315" y="419.91999999999996" as="targetPoint" />
          </mxGeometry>
        </mxCell>
        <mxCell id="mVGblYuvA7sIbJMndEKm-28" value="" style="endArrow=classic;html=1;rounded=0;" edge="1" parent="1">
          <mxGeometry width="50" height="50" relative="1" as="geometry">
            <mxPoint x="440" y="120" as="sourcePoint" />
            <mxPoint x="325" y="120" as="targetPoint" />
          </mxGeometry>
        </mxCell>
        <mxCell id="mVGblYuvA7sIbJMndEKm-29" value="" style="endArrow=classic;html=1;rounded=0;dashed=1;" edge="1" parent="1">
          <mxGeometry width="50" height="50" relative="1" as="geometry">
            <mxPoint x="325" y="160" as="sourcePoint" />
            <mxPoint x="440" y="160" as="targetPoint" />
          </mxGeometry>
        </mxCell>
        <mxCell id="mVGblYuvA7sIbJMndEKm-30" value="flag == 1" style="rhombus;whiteSpace=wrap;html=1;" vertex="1" parent="1">
          <mxGeometry x="400" y="190" width="80" height="60" as="geometry" />
        </mxCell>
        <mxCell id="mVGblYuvA7sIbJMndEKm-31" value="Data&lt;br&gt;Parsing" style="rounded=0;whiteSpace=wrap;html=1;" vertex="1" parent="1">
          <mxGeometry x="400" y="280" width="80" height="40" as="geometry" />
        </mxCell>
        <mxCell id="mVGblYuvA7sIbJMndEKm-32" value="Decision&lt;br&gt;State" style="rounded=0;whiteSpace=wrap;html=1;" vertex="1" parent="1">
          <mxGeometry x="400" y="360" width="80" height="40" as="geometry" />
        </mxCell>
        <mxCell id="mVGblYuvA7sIbJMndEKm-33" value="" style="endArrow=classic;html=1;rounded=0;exitX=0;exitY=0.277;exitDx=0;exitDy=0;exitPerimeter=0;" edge="1" parent="1" source="mVGblYuvA7sIbJMndEKm-31">
          <mxGeometry width="50" height="50" relative="1" as="geometry">
            <mxPoint x="395" y="291" as="sourcePoint" />
            <mxPoint x="325" y="291" as="targetPoint" />
            <Array as="points">
              <mxPoint x="325" y="291" />
            </Array>
          </mxGeometry>
        </mxCell>
        <mxCell id="mVGblYuvA7sIbJMndEKm-34" value="" style="endArrow=classic;html=1;rounded=0;entryX=0;entryY=0.75;entryDx=0;entryDy=0;dashed=1;" edge="1" parent="1" target="mVGblYuvA7sIbJMndEKm-31">
          <mxGeometry width="50" height="50" relative="1" as="geometry">
            <mxPoint x="325" y="310" as="sourcePoint" />
            <mxPoint x="395.00000000000006" y="310" as="targetPoint" />
          </mxGeometry>
        </mxCell>
        <mxCell id="mVGblYuvA7sIbJMndEKm-35" value="" style="endArrow=classic;html=1;rounded=0;exitX=1.004;exitY=0.491;exitDx=0;exitDy=0;exitPerimeter=0;" edge="1" parent="1">
          <mxGeometry width="50" height="50" relative="1" as="geometry">
            <mxPoint x="480" y="379.91999999999996" as="sourcePoint" />
            <mxPoint x="555" y="379.85999999999996" as="targetPoint" />
          </mxGeometry>
        </mxCell>
        <mxCell id="mVGblYuvA7sIbJMndEKm-36" value="" style="endArrow=classic;html=1;rounded=0;" edge="1" parent="1">
          <mxGeometry width="50" height="50" relative="1" as="geometry">
            <mxPoint x="680" y="120" as="sourcePoint" />
            <mxPoint x="565" y="120" as="targetPoint" />
            <Array as="points">
              <mxPoint x="565" y="120" />
            </Array>
          </mxGeometry>
        </mxCell>
        <mxCell id="mVGblYuvA7sIbJMndEKm-37" value="" style="endArrow=classic;html=1;rounded=0;dashed=1;" edge="1" parent="1">
          <mxGeometry width="50" height="50" relative="1" as="geometry">
            <mxPoint x="565" y="160" as="sourcePoint" />
            <mxPoint x="680" y="160" as="targetPoint" />
          </mxGeometry>
        </mxCell>
        <mxCell id="mVGblYuvA7sIbJMndEKm-38" value="GO&lt;div&gt;STOP&lt;/div&gt;&lt;div&gt;LEFT&lt;br&gt;RIGHT&lt;br&gt;STOP&lt;br&gt;SPEED&lt;br&gt;&lt;/div&gt;" style="rounded=0;whiteSpace=wrap;html=1;" vertex="1" parent="1">
          <mxGeometry x="640" y="200" width="80" height="120" as="geometry" />
        </mxCell>
        <mxCell id="mVGblYuvA7sIbJMndEKm-39" value="" style="endArrow=classic;html=1;rounded=0;" edge="1" parent="1">
          <mxGeometry width="50" height="50" relative="1" as="geometry">
            <mxPoint x="680" y="360" as="sourcePoint" />
            <mxPoint x="800" y="360" as="targetPoint" />
          </mxGeometry>
        </mxCell>
        <mxCell id="mVGblYuvA7sIbJMndEKm-40" value="Action accordig&lt;div&gt;to State&lt;/div&gt;" style="edgeLabel;html=1;align=center;verticalAlign=middle;resizable=0;points=[];" vertex="1" connectable="0" parent="mVGblYuvA7sIbJMndEKm-39">
          <mxGeometry x="-0.19" y="1" relative="1" as="geometry">
            <mxPoint x="10" y="1" as="offset" />
          </mxGeometry>
        </mxCell>
        <mxCell id="mVGblYuvA7sIbJMndEKm-41" value="getBtnState" style="text;html=1;align=center;verticalAlign=middle;resizable=0;points=[];autosize=1;strokeColor=none;fillColor=none;" vertex="1" parent="1">
          <mxGeometry x="95" y="98" width="90" height="30" as="geometry" />
        </mxCell>
        <mxCell id="mVGblYuvA7sIbJMndEKm-42" value="flag" style="text;html=1;align=center;verticalAlign=middle;resizable=0;points=[];autosize=1;strokeColor=none;fillColor=none;" vertex="1" parent="1">
          <mxGeometry x="360" y="98" width="40" height="30" as="geometry" />
        </mxCell>
        <mxCell id="mVGblYuvA7sIbJMndEKm-43" value="flag" style="text;html=1;align=center;verticalAlign=middle;resizable=0;points=[];autosize=1;strokeColor=none;fillColor=none;" vertex="1" parent="1">
          <mxGeometry x="360" y="138" width="40" height="30" as="geometry" />
        </mxCell>
        <mxCell id="mVGblYuvA7sIbJMndEKm-44" value="deQue" style="text;html=1;align=center;verticalAlign=middle;resizable=0;points=[];autosize=1;strokeColor=none;fillColor=none;" vertex="1" parent="1">
          <mxGeometry x="332" y="270" width="60" height="30" as="geometry" />
        </mxCell>
        <mxCell id="mVGblYuvA7sIbJMndEKm-45" value="get" style="text;html=1;align=center;verticalAlign=middle;resizable=0;points=[];autosize=1;strokeColor=none;fillColor=none;" vertex="1" parent="1">
          <mxGeometry x="496" y="357" width="40" height="30" as="geometry" />
        </mxCell>
        <mxCell id="mVGblYuvA7sIbJMndEKm-46" value="enQue" style="text;html=1;align=center;verticalAlign=middle;resizable=0;points=[];autosize=1;strokeColor=none;fillColor=none;" vertex="1" parent="1">
          <mxGeometry x="243" y="239" width="60" height="30" as="geometry" />
        </mxCell>
        <mxCell id="mVGblYuvA7sIbJMndEKm-47" value="enQue" style="text;html=1;align=center;verticalAlign=middle;resizable=0;points=[];autosize=1;strokeColor=none;fillColor=none;" vertex="1" parent="1">
          <mxGeometry x="243" y="318" width="60" height="30" as="geometry" />
        </mxCell>
        <mxCell id="mVGblYuvA7sIbJMndEKm-48" value="Yes" style="text;html=1;align=center;verticalAlign=middle;resizable=0;points=[];autosize=1;strokeColor=none;fillColor=none;" vertex="1" parent="1">
          <mxGeometry x="121" y="319" width="40" height="30" as="geometry" />
        </mxCell>
        <mxCell id="mVGblYuvA7sIbJMndEKm-49" value="No" style="text;html=1;align=center;verticalAlign=middle;resizable=0;points=[];autosize=1;strokeColor=none;fillColor=none;" vertex="1" parent="1">
          <mxGeometry x="190" y="214" width="40" height="30" as="geometry" />
        </mxCell>
        <mxCell id="mVGblYuvA7sIbJMndEKm-50" value="getState" style="text;html=1;align=center;verticalAlign=middle;resizable=0;points=[];autosize=1;strokeColor=none;fillColor=none;" vertex="1" parent="1">
          <mxGeometry x="587" y="98" width="70" height="30" as="geometry" />
        </mxCell>
        <mxCell id="mVGblYuvA7sIbJMndEKm-51" value="State" style="text;html=1;align=center;verticalAlign=middle;resizable=0;points=[];autosize=1;strokeColor=none;fillColor=none;" vertex="1" parent="1">
          <mxGeometry x="596" y="138" width="50" height="30" as="geometry" />
        </mxCell>
      </root>
    </mxGraphModel>
  </diagram>
</mxfile>
